<?xml version="1.0" encoding="utf-8"?>
<!-- Generator: Adobe Illustrator 16.0.0, SVG Export Plug-In . SVG Version: 6.00 Build 0)  -->
<!DOCTYPE svg PUBLIC "-//W3C//DTD SVG 1.1//EN" "http://www.w3.org/Graphics/SVG/1.1/DTD/svg11.dtd">
<svg version="1.1" id="Layer_1" xmlns="http://www.w3.org/2000/svg" xmlns:xlink="http://www.w3.org/1999/xlink" x="0px" y="0px"
	 width="189.791px" height="189.29px" viewBox="155.042 155.468 189.791 189.29"
	 enable-background="new 155.042 155.468 189.791 189.29" xml:space="preserve">
<g>
	<g>
		<path fill="#231F20" d="M235.816,344.758c-2.534,0-5.083-0.289-7.574-0.857c-9.535-2.176-17.455-8.17-22.118-16.629
			c-9.765,0.315-18.9-3.438-25.61-10.459c-6.757-7.065-10.066-16.43-9.299-26.059c-8.24-5.037-13.868-13.219-15.615-22.84
			c-1.746-9.622,0.65-19.258,6.596-26.871c-4.102-8.745-4.293-18.671-0.447-27.664c3.843-8.994,11.151-15.715,20.306-18.792
			c1.394-9.558,6.702-17.948,14.866-23.336c5.56-3.671,12.01-5.611,18.648-5.611c2.931,0,5.83,0.375,8.649,1.117
			c6.429-7.209,15.482-11.289,25.264-11.289c7.312,0,14.42,2.37,20.25,6.714c2.135-0.415,4.302-0.624,6.471-0.624
			c5.113,0,10.057,1.132,14.691,3.365c8.811,4.246,15.195,11.848,17.858,21.132c9.484,1.823,17.629,7.503,22.645,15.9
			c5.014,8.395,6.153,18.26,3.264,27.475c6.911,6.745,10.577,15.974,10.137,25.744c-0.438,9.766-4.919,18.629-12.41,24.729
			c2.053,9.438,0.027,19.16-5.72,27.07c-5.75,7.91-14.37,12.836-23.98,13.799c-3.486,9.008-10.528,15.815-19.688,19.252
			c-3.836,1.438-7.84,1.978-11.9,1.978c-0.002,0-0.002,0-0.004,0c-5.486,0-10.865-1.14-15.712-3.675
			C249.669,342.367,242.826,344.758,235.816,344.758z M209.511,318.236l2.673,1.576l0.571,1.28
			c3.268,7.325,9.618,12.548,17.423,14.33c7.718,1.763,15.916-0.266,21.927-5.356l1.115-0.946l3.064-0.192l1.211,0.592
			c4.08,2.605,8.781,3.801,13.6,3.801h0.002c3.016,0,5.99-0.358,8.846-1.432c7.504-2.814,13.099-8.756,15.349-16.457l0.411-1.361
			l2.459-1.819l1.436-0.013c8.023-0.122,15.326-3.902,20.036-10.383c4.705-6.473,6.052-14.576,3.7-22.239l-0.422-1.37l1.021-2.948
			l1.199-0.821c6.619-4.521,10.622-11.699,10.979-19.691c0.36-7.999-2.981-15.507-9.166-20.604l-1.096-0.9l-0.771-3.068l0.535-1.31
			c3.036-7.421,2.421-15.619-1.683-22.489c-4.109-6.879-11.048-11.307-19.033-12.148l-1.437-0.151l-2.1-1.943l-0.445-1.547
			c-1.55-7.876-6.58-14.389-13.798-17.867c-5.417-2.611-11.566-3.195-17.352-1.668l-2.201,0.58l-1.729-1.477
			c-4.555-3.887-10.362-6.028-16.356-6.028c-8.002,0-15.352,3.675-20.166,10.083l-0.861,1.145l-2.989,0.899l-1.369-0.478
			c-2.746-0.98-5.614-1.478-8.527-1.478c-4.931,0-9.723,1.443-13.858,4.173c-6.689,4.415-10.801,11.542-11.28,19.556l-0.089,1.459
			l-1.879,2.283l-1.492,0.403c-7.799,1.902-14.077,7.219-17.227,14.588c-3.15,7.366-2.657,15.576,1.354,22.525l0.699,1.215
			l-0.343,3.125l-0.963,1.038c-5.455,5.885-7.765,13.781-6.336,21.662c1.431,7.875,6.358,14.453,13.527,18.048l1.278,0.642
			l1.419,2.813l-0.229,1.391c-1.307,7.912,1.116,15.766,6.647,21.551c4.8,5.023,11.272,7.789,18.223,7.789
			c1.003,0,2.018-0.061,3.014-0.18L209.511,318.236z"/>
	</g>
	<g>
		<circle fill="#231F20" cx="215.525" cy="227.787" r="10.77"/>
	</g>
	<g>
		<circle fill="#231F20" cx="284.359" cy="227.787" r="10.77"/>
	</g>
	<g>
		<path fill="#231F20" d="M249.941,288.107c-22.128,0-45.944-5.781-45.944-18.477c0-2.4,1.946-4.348,4.348-4.348
			c2.4,0,4.347,1.945,4.347,4.348c0,2.84,13.055,9.782,37.25,9.782c24.199,0,37.251-6.942,37.251-9.782
			c0-2.4,1.945-4.348,4.348-4.348s4.348,1.945,4.348,4.348C295.889,282.326,272.07,288.107,249.941,288.107z"/>
	</g>
</g>
</svg>
