<?xml version="1.0" encoding="utf-8"?>
<!-- Generator: Adobe Illustrator 16.0.0, SVG Export Plug-In . SVG Version: 6.00 Build 0)  -->
<!DOCTYPE svg PUBLIC "-//W3C//DTD SVG 1.1//EN" "http://www.w3.org/Graphics/SVG/1.1/DTD/svg11.dtd">
<svg version="1.1" id="Layer_1" xmlns="http://www.w3.org/2000/svg" xmlns:xlink="http://www.w3.org/1999/xlink" x="0px" y="0px"
	 width="176.502px" height="176.021px" viewBox="161.75 161.989 176.502 176.021"
	 enable-background="new 161.75 161.989 176.502 176.021" xml:space="preserve">
<path fill="#CE5757" d="M327.746,231.2c-0.021-0.091-0.045-0.181-0.066-0.271c3.312-8.1,2.905-17.605-1.927-25.695
	c-4.839-8.101-13.028-12.965-21.744-13.883c-0.054-0.051-0.108-0.103-0.167-0.152c-1.689-8.596-7.267-16.319-15.768-20.414
	c-6.428-3.097-13.434-3.593-19.83-1.906c-5.031-4.295-11.559-6.89-18.693-6.89c-9.422,0-17.787,4.523-23.043,11.52
	c-0.092,0.027-0.184,0.055-0.273,0.082c-8.239-2.944-17.716-2.11-25.578,3.081c-7.875,5.198-12.367,13.597-12.891,22.343
	c-0.051,0.058-0.1,0.118-0.146,0.177c-8.514,2.076-15.975,7.994-19.684,16.67c-3.707,8.672-2.83,18.152,1.546,25.737
	c-0.01,0.081-0.018,0.162-0.026,0.244c-5.955,6.422-8.923,15.47-7.238,24.751c1.684,9.274,7.631,16.699,15.455,20.621
	c0.04,0.081,0.082,0.162,0.124,0.244c-1.425,8.637,1.083,17.811,7.597,24.624c6.516,6.813,15.57,9.733,24.265,8.694
	c0.075,0.046,0.153,0.088,0.228,0.132c3.566,7.995,10.717,14.272,19.908,16.372c9.197,2.1,18.372-0.457,25.055-6.121
	c0.078-0.004,0.156-0.012,0.234-0.018c7.382,4.719,16.816,6.021,25.648,2.707c8.832-3.313,15.08-10.5,17.537-18.908
	c0.064-0.047,0.129-0.096,0.19-0.145c8.759-0.131,17.35-4.24,22.896-11.87c5.538-7.622,6.798-17.048,4.229-25.413
	c0.031-0.089,0.064-0.18,0.094-0.271c7.226-4.937,12.123-13.091,12.545-22.503C338.645,245.326,334.5,236.765,327.746,231.2z
	 M283.277,220.916c5.8,0,10.498,4.699,10.498,10.496c0,5.799-4.698,10.498-10.498,10.498c-5.799,0-10.496-4.699-10.496-10.498
	C272.781,225.615,277.479,220.916,283.277,220.916z M216.188,220.916c5.8,0,10.498,4.699,10.498,10.496
	c0,5.799-4.698,10.498-10.498,10.498c-5.797,0-10.496-4.699-10.496-10.498C205.691,225.615,210.391,220.916,216.188,220.916z
	 M293.775,283h-88.084c-2.342,0-4.238-1.658-4.238-4c0-2.34,1.896-4,4.238-4h88.084c2.34,0,4.236,1.66,4.236,4
	C298.014,281.342,296.115,283,293.775,283z"/>
</svg>
