<?xml version="1.0" encoding="utf-8"?>
<!-- Generator: Adobe Illustrator 16.0.0, SVG Export Plug-In . SVG Version: 6.00 Build 0)  -->
<!DOCTYPE svg PUBLIC "-//W3C//DTD SVG 1.1//EN" "http://www.w3.org/Graphics/SVG/1.1/DTD/svg11.dtd">
<svg version="1.1" id="Layer_1" xmlns="http://www.w3.org/2000/svg" xmlns:xlink="http://www.w3.org/1999/xlink" x="0px" y="0px"
	 width="188.608px" height="188.112px" viewBox="155.568 155.646 188.608 188.112"
	 enable-background="new 155.568 155.646 188.608 188.112" xml:space="preserve">
<g>
	<g>
		<path fill="#231F20" d="M235.839,343.758c-2.52,0-5.052-0.287-7.526-0.852c-9.478-2.163-17.348-8.119-21.98-16.526
			c-9.699,0.313-18.783-3.415-25.453-10.394c-6.714-7.021-10.002-16.326-9.239-25.896c-8.188-5.007-13.782-13.137-15.518-22.697
			c-1.736-9.562,0.646-19.139,6.554-26.705c-4.075-8.69-4.266-18.555-0.444-27.491c3.819-8.938,11.082-15.617,20.179-18.675
			c1.387-9.498,6.662-17.836,14.775-23.191c5.525-3.648,11.933-5.576,18.532-5.576c2.912,0,5.792,0.373,8.596,1.11
			c6.387-7.165,15.386-11.219,25.104-11.219c7.267,0,14.331,2.355,20.125,6.672c2.119-0.412,4.274-0.62,6.431-0.62
			c5.082,0,9.993,1.125,14.6,3.344c8.757,4.219,15.102,11.774,17.748,21c9.427,1.812,17.519,7.457,22.502,15.801
			c4.981,8.343,6.117,18.146,3.243,27.304c6.868,6.703,10.514,15.874,10.073,25.583c-0.435,9.705-4.889,18.513-12.333,24.574
			c2.039,9.379,0.028,19.041-5.685,26.901c-5.712,7.86-14.28,12.757-23.83,13.714c-3.465,8.949-10.465,15.707-19.564,19.121
			c-3.813,1.43-7.791,1.957-11.828,1.957c-0.002,0-0.002,0-0.002,0c-5.455,0-10.799-1.124-15.615-3.645
			C249.605,341.374,242.804,343.758,235.839,343.758z M209.696,317.402l2.656,1.565l0.568,1.272
			c3.246,7.279,9.557,12.47,17.314,14.24c7.668,1.752,15.817-0.264,21.79-5.323l1.109-0.941l3.045-0.188l1.203,0.484
			c4.055,2.592,8.729,3.678,13.516,3.678l0,0c2.998,0,5.957-0.256,8.793-1.32c7.457-2.799,13.016-8.651,15.252-16.307l0.41-1.324
			l2.445-1.801l1.42-0.004c7.977-0.121,15.235-3.875,19.914-10.314c4.674-6.434,6.017-14.484,3.677-22.1l-0.419-1.36l1.017-2.933
			l1.19-0.813c6.578-4.495,10.556-11.628,10.91-19.57c0.359-7.948-2.961-15.41-9.107-20.475l-1.086-0.894l-0.768-3.041l0.532-1.31
			c3.014-7.375,2.403-15.521-1.674-22.349c-4.084-6.836-10.979-11.237-18.913-12.073l-1.428-0.149l-2.088-1.931l-0.441-1.538
			c-1.541-7.827-6.539-14.299-13.715-17.756c-5.381-2.595-11.489-3.175-17.242-1.658l-2.188,0.576l-1.719-1.468
			c-4.525-3.863-10.3-5.99-16.255-5.99c-7.952,0-15.257,3.652-20.041,10.02l-0.854,1.138l-2.972,0.895l-1.361-0.475
			c-2.729-0.975-5.578-1.469-8.472-1.469c-4.902,0-9.663,1.435-13.773,4.147c-6.647,4.388-10.732,11.471-11.211,19.434l-0.086,1.45
			l-1.867,2.269l-1.483,0.4c-7.751,1.891-13.991,7.174-17.12,14.498c-3.13,7.32-2.64,15.479,1.344,22.385l0.697,1.207l-0.342,3.107
			l-0.956,1.031c-5.423,5.848-7.718,13.694-6.296,21.526c1.421,7.825,6.319,14.363,13.442,17.936l1.271,0.637l1.41,2.796
			l-0.228,1.384c-1.297,7.861,1.109,15.668,6.605,21.414c4.771,4.992,11.203,7.74,18.109,7.74c0.997,0,2.005-0.061,2.994-0.178
			L209.696,317.402z"/>
	</g>
	<g>
		<circle fill="#231F20" cx="215.401" cy="230.751" r="10.703"/>
	</g>
	<g>
		<circle fill="#231F20" cx="283.807" cy="230.751" r="10.702"/>
	</g>
	<g>
		<path fill="#231F20" d="M294.508,283.676h-89.81c-2.386,0-4.32-1.935-4.32-4.32c0-2.387,1.935-4.319,4.32-4.319h89.81
			c2.387,0,4.32,1.934,4.32,4.319S296.895,283.676,294.508,283.676z"/>
	</g>
</g>
</svg>
