<?xml version="1.0" encoding="utf-8"?>
<!-- Generator: Adobe Illustrator 16.0.0, SVG Export Plug-In . SVG Version: 6.00 Build 0)  -->
<!DOCTYPE svg PUBLIC "-//W3C//DTD SVG 1.1//EN" "http://www.w3.org/Graphics/SVG/1.1/DTD/svg11.dtd">
<svg version="1.1" id="Layer_1" xmlns="http://www.w3.org/2000/svg" xmlns:xlink="http://www.w3.org/1999/xlink" x="0px" y="0px"
	 width="187.927px" height="187.43px" viewBox="156.46 156.328 187.927 187.43"
	 enable-background="new 156.46 156.328 187.927 187.43" xml:space="preserve">
<g>
	<g>
		<path fill="#231F20" d="M236.441,343.758c-2.51,0-5.033-0.285-7.5-0.849c-9.443-2.155-17.284-8.089-21.901-16.468
			c-9.652,0.313-18.715-3.402-25.36-10.354c-6.689-6.997-9.967-16.269-9.207-25.802c-8.159-4.988-13.732-13.09-15.461-22.616
			c-1.729-9.528,0.644-19.069,6.53-26.607c-4.061-8.659-4.25-18.488-0.443-27.393c3.806-8.905,11.042-15.561,20.107-18.606
			c1.38-9.465,6.637-17.772,14.721-23.107c5.505-3.635,11.891-5.556,18.465-5.556c2.903,0,5.772,0.371,8.565,1.106
			c6.364-7.139,15.331-11.178,25.015-11.178c7.24,0,14.279,2.346,20.053,6.647c2.109-0.41,4.258-0.617,6.406-0.617
			c5.063,0,9.957,1.121,14.547,3.332c8.725,4.204,15.047,11.733,17.683,20.924c9.394,1.805,17.456,7.43,22.421,15.744
			c4.965,8.313,6.096,18.08,3.232,27.205c6.844,6.679,10.475,15.816,10.037,25.49c-0.434,9.672-4.87,18.445-12.289,24.486
			c2.032,9.344,0.028,18.973-5.663,26.805c-5.692,7.832-14.229,12.711-23.745,13.664c-3.451,8.918-10.426,15.645-19.494,19.047
			c-3.799,1.426-7.762,1.945-11.785,1.945c-0.001,0-0.002,0-0.002,0c-5.436,0-10.758-1.114-15.559-3.625
			C250.158,341.379,243.382,343.758,236.441,343.758z M210.395,317.498l2.646,1.561l0.566,1.269
			c3.234,7.254,9.523,12.425,17.251,14.188c7.64,1.745,15.76-0.262,21.712-5.306l1.104-0.937l3.033-0.189l1.199,0.367
			c4.041,2.582,8.696,3.549,13.465,3.549c0,0,0.001,0,0.002,0c2.985,0,5.935-0.139,8.761-1.199
			c7.43-2.789,12.969-8.564,15.197-16.189l0.407-1.291l2.438-1.779l1.416,0.003c7.946-0.12,15.179-3.856,19.842-10.272
			c4.658-6.41,5.993-14.431,3.662-22.019l-0.416-1.354l1.013-2.92l1.187-0.812c6.554-4.479,10.518-11.586,10.872-19.5
			c0.357-7.919-2.951-15.354-9.076-20.4l-1.082-0.891l-0.764-3.029l0.529-1.307c3.004-7.348,2.396-15.465-1.668-22.268
			c-4.068-6.812-10.938-11.195-18.846-12.029l-1.422-0.148l-2.081-1.924l-0.438-1.532c-1.535-7.8-6.516-14.248-13.664-17.692
			c-5.363-2.585-11.449-3.164-17.182-1.652l-2.18,0.574l-1.712-1.462c-4.51-3.85-10.262-5.969-16.195-5.969
			c-7.924,0-15.202,3.639-19.969,9.983l-0.852,1.133l-2.962,0.891l-1.355-0.473c-2.718-0.971-5.558-1.463-8.442-1.463
			c-4.883,0-9.628,1.43-13.722,4.132c-6.625,4.372-10.694,11.431-11.17,19.364l-0.087,1.445l-1.86,2.26l-1.478,0.398
			c-7.723,1.884-13.939,7.148-17.058,14.445c-3.119,7.294-2.63,15.423,1.34,22.305l0.693,1.203l-0.34,3.095l-0.953,1.027
			c-5.402,5.828-7.689,13.646-6.274,21.449c1.417,7.798,6.297,14.312,13.395,17.87l1.266,0.635l1.405,2.785l-0.227,1.378
			c-1.292,7.833,1.106,15.611,6.582,21.339c4.755,4.973,11.162,7.713,18.044,7.713c0.994,0,1.998-0.061,2.983-0.18L210.395,317.498z
			"/>
	</g>
	<g>
		<path fill="#231F20" d="M292.834,302.586c-2.379,0-4.305-1.927-4.305-4.304c0-20.894-16.998-37.892-37.893-37.892
			c-20.894,0-37.891,16.998-37.891,37.892c0,2.377-1.927,4.304-4.305,4.304s-4.305-1.927-4.305-4.304
			c0-25.64,20.859-46.499,46.499-46.499c25.641,0,46.502,20.859,46.502,46.499C297.139,300.659,295.211,302.586,292.834,302.586z"/>
	</g>
	<g>
		<path fill="#231F20" d="M202.398,242.896c-1.101,0-2.203-0.42-3.043-1.262c-1.681-1.68-1.681-4.406,0-6.086l30.114-30.114
			c1.68-1.683,4.407-1.683,6.088,0c1.68,1.681,1.68,4.406,0,6.088l-30.113,30.112C204.603,242.477,203.5,242.896,202.398,242.896z"
			/>
	</g>
	<g>
		<path fill="#231F20" d="M232.512,242.896c-1.102,0-2.204-0.42-3.043-1.262l-30.114-30.112c-1.681-1.682-1.681-4.407,0-6.088
			c1.681-1.683,4.407-1.683,6.089,0l30.113,30.114c1.68,1.68,1.68,4.406,0,6.086C234.716,242.477,233.613,242.896,232.512,242.896z"
			/>
	</g>
	<g>
		<path fill="#231F20" d="M269.633,242.896c-1.102,0-2.205-0.42-3.044-1.26c-1.682-1.682-1.682-4.408-0.001-6.088l30.109-30.114
			c1.682-1.683,4.408-1.681,6.089-0.001c1.682,1.682,1.682,4.407,0.001,6.089l-30.11,30.112
			C271.836,242.477,270.734,242.896,269.633,242.896z"/>
	</g>
	<g>
		<path fill="#231F20" d="M299.744,242.896c-1.102,0-2.203-0.42-3.043-1.262l-30.113-30.112c-1.682-1.682-1.682-4.407,0-6.088
			c1.68-1.683,4.406-1.683,6.087,0l30.112,30.114c1.682,1.68,1.682,4.406,0,6.086C301.947,242.477,300.846,242.896,299.744,242.896z
			"/>
	</g>
</g>
</svg>
