<?xml version="1.0" encoding="utf-8"?>
<!-- Generator: Adobe Illustrator 16.0.0, SVG Export Plug-In . SVG Version: 6.00 Build 0)  -->
<!DOCTYPE svg PUBLIC "-//W3C//DTD SVG 1.1//EN" "http://www.w3.org/Graphics/SVG/1.1/DTD/svg11.dtd">
<svg version="1.1" id="Layer_1" xmlns="http://www.w3.org/2000/svg" xmlns:xlink="http://www.w3.org/1999/xlink" x="0px" y="0px"
	 width="176.5px" height="176.02px" viewBox="161.75 161.99 176.5 176.02" enable-background="new 161.75 161.99 176.5 176.02"
	 xml:space="preserve">
<path fill="#CE5757" d="M327.747,231.201c-0.025-0.091-0.047-0.181-0.068-0.271c3.312-8.1,2.906-17.605-1.925-25.695
	c-4.839-8.101-13.03-12.965-21.744-13.883c-0.058-0.051-0.109-0.103-0.166-0.152c-1.691-8.596-7.269-16.319-15.769-20.414
	c-6.429-3.097-13.435-3.593-19.832-1.906c-5.032-4.295-11.56-6.89-18.693-6.89c-9.421,0-17.789,4.523-23.042,11.52
	c-0.093,0.027-0.185,0.055-0.275,0.082c-8.237-2.944-17.714-2.11-25.579,3.081c-7.873,5.198-12.364,13.597-12.89,22.343
	c-0.049,0.058-0.098,0.118-0.145,0.177c-8.513,2.076-15.977,7.994-19.684,16.67c-3.708,8.672-2.831,18.152,1.546,25.737
	c-0.01,0.081-0.018,0.162-0.027,0.244c-5.954,6.422-8.922,15.468-7.236,24.75c1.684,9.275,7.629,16.699,15.453,20.621
	c0.043,0.082,0.082,0.162,0.123,0.244c-1.424,8.637,1.086,17.811,7.6,24.625c6.513,6.814,15.57,9.734,24.262,8.693
	c0.077,0.047,0.153,0.088,0.23,0.133c3.566,7.994,10.717,14.271,19.908,16.371c9.196,2.1,18.371-0.457,25.054-6.121
	c0.078-0.004,0.155-0.01,0.234-0.016c7.382,4.717,16.816,6.02,25.648,2.707c8.83-3.314,15.08-10.5,17.537-18.91
	c0.063-0.047,0.127-0.096,0.189-0.144c8.76-0.131,17.352-4.239,22.896-11.871c5.539-7.62,6.797-17.047,4.229-25.411
	c0.032-0.091,0.063-0.181,0.095-0.271c7.224-4.936,12.12-13.09,12.543-22.502C338.645,245.327,334.5,236.765,327.747,231.201z
	 M199.728,241.724c-1.656-1.653-1.656-4.337,0-5.991l11.824-11.824l-11.824-11.826c-1.656-1.654-1.656-4.338,0-5.991
	c1.653-1.656,4.335-1.656,5.992,0l11.823,11.825l11.825-11.825c1.656-1.656,4.337-1.656,5.992,0c1.654,1.653,1.654,4.337,0,5.991
	l-11.825,11.826l11.825,11.824c1.654,1.654,1.654,4.338,0,5.991c-0.828,0.828-1.912,1.242-2.996,1.242
	c-1.085,0-2.168-0.414-2.996-1.242L217.543,229.9l-11.823,11.824c-0.83,0.828-1.913,1.242-2.998,1.242
	C201.638,242.966,200.554,242.552,199.728,241.724z M291.739,301.721c-2.341,0-4.236-1.896-4.236-4.236
	c0-20.565-16.731-37.297-37.299-37.297c-20.563,0-37.295,16.73-37.295,37.297c0,2.341-1.897,4.236-4.236,4.236
	c-2.342,0-4.239-1.896-4.239-4.236c0-25.239,20.534-45.771,45.771-45.771c25.238,0,45.773,20.531,45.773,45.771
	C295.979,299.824,294.081,301.721,291.739,301.721z M301.54,241.724c-0.828,0.828-1.913,1.242-2.998,1.242
	c-1.083,0-2.168-0.414-2.996-1.242L283.723,229.9l-11.824,11.824c-0.824,0.828-1.912,1.242-2.996,1.242s-2.166-0.414-2.995-1.242
	c-1.655-1.653-1.655-4.335,0-5.991l11.823-11.824l-11.823-11.826c-1.655-1.654-1.655-4.338,0-5.991c1.653-1.656,4.335-1.656,5.989,0
	l11.826,11.825l11.823-11.825c1.651-1.656,4.337-1.656,5.992,0c1.653,1.653,1.653,4.336,0,5.991l-11.823,11.826l11.825,11.824
	C303.193,237.387,303.193,240.071,301.54,241.724z"/>
</svg>
