<?xml version="1.0" encoding="utf-8"?>
<!-- Generator: Adobe Illustrator 16.0.0, SVG Export Plug-In . SVG Version: 6.00 Build 0)  -->
<!DOCTYPE svg PUBLIC "-//W3C//DTD SVG 1.1//EN" "http://www.w3.org/Graphics/SVG/1.1/DTD/svg11.dtd">
<svg version="1.1" id="Layer_1" xmlns="http://www.w3.org/2000/svg" xmlns:xlink="http://www.w3.org/1999/xlink" x="0px" y="0px"
	 width="176.5px" height="176.021px" viewBox="161.75 161.989 176.5 176.021" enable-background="new 161.75 161.989 176.5 176.021"
	 xml:space="preserve">
<path fill="#CE5757" d="M327.746,231.2c-0.023-0.091-0.046-0.181-0.066-0.271c3.311-8.1,2.906-17.605-1.926-25.695
	c-4.84-8.101-13.029-12.965-21.744-13.883c-0.055-0.051-0.111-0.103-0.168-0.152c-1.691-8.596-7.266-16.319-15.766-20.414
	c-6.43-3.097-13.436-3.593-19.832-1.906c-5.031-4.295-11.559-6.89-18.693-6.89c-9.422,0-17.787,4.523-23.044,11.52
	c-0.093,0.027-0.183,0.055-0.274,0.082c-8.238-2.944-17.715-2.11-25.578,3.081c-7.874,5.198-12.365,13.597-12.89,22.343
	c-0.049,0.058-0.101,0.118-0.146,0.177c-8.514,2.076-15.976,7.994-19.684,16.67c-3.708,8.672-2.83,18.152,1.545,25.737
	c-0.008,0.081-0.018,0.162-0.025,0.244c-5.955,6.422-8.922,15.47-7.238,24.751c1.684,9.274,7.63,16.699,15.454,20.621
	c0.042,0.081,0.083,0.162,0.126,0.244c-1.427,8.637,1.082,17.811,7.596,24.624c6.516,6.813,15.572,9.733,24.264,8.694
	c0.076,0.046,0.153,0.088,0.229,0.132c3.564,7.995,10.716,14.272,19.907,16.372c9.198,2.1,18.371-0.457,25.055-6.121
	c0.076-0.004,0.156-0.012,0.234-0.018c7.383,4.719,16.816,6.021,25.648,2.707c8.832-3.313,15.08-10.5,17.539-18.908
	c0.063-0.047,0.125-0.096,0.188-0.145c8.76-0.131,17.35-4.24,22.895-11.87c5.539-7.622,6.798-17.048,4.229-25.413
	c0.031-0.089,0.063-0.18,0.093-0.271c7.226-4.937,12.121-13.091,12.545-22.503C338.646,245.326,334.499,236.765,327.746,231.2z
	 M283.546,217.743c5.8,0,10.497,4.7,10.497,10.496c0,5.8-4.697,10.498-10.497,10.498s-10.497-4.698-10.497-10.498
	C273.049,222.443,277.746,217.743,283.546,217.743z M216.456,217.743c5.798,0,10.495,4.7,10.495,10.496
	c0,5.8-4.697,10.498-10.495,10.498s-10.497-4.698-10.497-10.498C205.959,222.443,210.658,217.743,216.456,217.743z M250,287.032
	c-21.568,0-44.781-5.636-44.781-18.009c0-2.34,1.896-4.236,4.237-4.236s4.237,1.896,4.237,4.236c0,2.768,12.723,9.535,36.307,9.535
	s36.307-6.769,36.307-9.535c0-2.34,1.896-4.236,4.238-4.236c2.34,0,4.236,1.896,4.236,4.236
	C294.781,281.396,271.568,287.032,250,287.032z"/>
</svg>
