<?xml version="1.0" encoding="utf-8"?>
<!-- Generator: Adobe Illustrator 16.0.0, SVG Export Plug-In . SVG Version: 6.00 Build 0)  -->
<!DOCTYPE svg PUBLIC "-//W3C//DTD SVG 1.1//EN" "http://www.w3.org/Graphics/SVG/1.1/DTD/svg11.dtd">
<svg version="1.1" id="Layer_1" xmlns="http://www.w3.org/2000/svg" xmlns:xlink="http://www.w3.org/1999/xlink" x="0px" y="0px"
	 width="187.103px" height="186.611px" viewBox="156.414 157.147 187.103 186.611"
	 enable-background="new 156.414 157.147 187.103 186.611" xml:space="preserve">
<g>
	<g>
		<path fill="#231F20" d="M236.045,343.758c-2.499,0-5.011-0.283-7.467-0.846c-9.401-2.145-17.208-8.053-21.805-16.395
			c-9.616,0.313-18.633-3.389-25.248-10.31c-6.662-6.967-9.923-16.197-9.167-25.688c-8.123-4.969-13.672-13.033-15.394-22.519
			c-1.722-9.485,0.641-18.986,6.501-26.491c-4.043-8.621-4.231-18.407-0.44-27.272c3.789-8.867,10.993-15.493,20.018-18.526
			c1.374-9.422,6.608-17.693,14.656-23.006c5.481-3.619,11.838-5.532,18.384-5.532c2.89,0,5.747,0.37,8.527,1.102
			c6.337-7.107,15.264-11.129,24.905-11.129c7.208,0,14.217,2.336,19.963,6.619c2.104-0.409,4.24-0.615,6.379-0.615
			c5.041,0,9.914,1.116,14.484,3.317c8.686,4.186,14.98,11.68,17.605,20.833c9.352,1.797,17.379,7.397,22.321,15.675
			c4.943,8.276,6.068,18.001,3.219,27.086c6.813,6.649,10.429,15.747,9.994,25.379c-0.433,9.629-4.852,18.365-12.235,24.379
			c2.022,9.303,0.029,18.889-5.639,26.688s-14.166,12.654-23.642,13.604c-3.438,8.88-10.381,15.572-19.409,18.959
			c-3.781,1.418-7.729,1.931-11.732,1.931c-0.002,0-0.002,0-0.002,0c-5.412,0-10.713-1.104-15.491-3.604
			C249.702,341.382,242.955,343.758,236.045,343.758z M210.112,317.613l2.635,1.553l0.563,1.264
			c3.221,7.221,9.482,12.369,17.177,14.127c7.606,1.736,15.69-0.262,21.617-5.281l1.101-0.935l3.021-0.188l1.193,0.342
			c4.021,2.568,8.658,3.507,13.406,3.507c0,0,0,0,0.002,0c2.973,0,5.906-0.112,8.723-1.17c7.396-2.774,12.91-8.511,15.131-16.104
			l0.404-1.279l2.428-1.768l1.408,0.004c7.912-0.119,15.113-3.838,19.755-10.228c4.639-6.381,5.968-14.367,3.647-21.921l-0.416-1.35
			l1.008-2.908l1.182-0.807c6.525-4.459,10.472-11.535,10.824-19.414c0.355-7.885-2.938-15.287-9.036-20.312l-1.077-0.887
			l-0.76-3.016l0.526-1.3c2.99-7.316,2.385-15.397-1.661-22.171c-4.051-6.782-10.889-11.147-18.762-11.976l-1.416-0.148l-2.07-1.916
			l-0.438-1.525c-1.528-7.765-6.486-14.185-13.604-17.615c-5.339-2.574-11.399-3.149-17.106-1.645l-2.17,0.571l-1.705-1.456
			c-4.488-3.833-10.216-5.942-16.124-5.942c-7.889,0-15.136,3.623-19.881,9.939l-0.849,1.129l-2.947,0.887l-1.351-0.471
			c-2.707-0.966-5.534-1.457-8.405-1.457c-4.862,0-9.585,1.423-13.663,4.114c-6.594,4.353-10.646,11.379-11.121,19.279l-0.086,1.438
			l-1.853,2.25l-1.471,0.397c-7.689,1.875-13.878,7.117-16.983,14.382c-3.104,7.262-2.619,15.355,1.334,22.207l0.691,1.198
			l-0.339,3.082l-0.949,1.022c-5.378,5.802-7.656,13.586-6.246,21.355c1.41,7.764,6.269,14.248,13.335,17.791l1.26,0.631
			l1.399,2.774l-0.226,1.371c-1.287,7.8,1.101,15.543,6.553,21.245c4.733,4.951,11.113,7.679,17.965,7.679
			c0.989,0,1.989-0.06,2.97-0.177L210.112,317.613z"/>
	</g>
	<g>
		<circle fill="#231F20" cx="216.008" cy="215.918" r="10.618"/>
	</g>
	<g>
		<circle fill="#231F20" cx="283.868" cy="215.918" r="10.618"/>
	</g>
	<g>
		<path fill="#231F20" d="M214.242,277.091c-1.9,0-3.636-1.272-4.143-3.196c-0.602-2.289,0.765-4.634,3.054-5.235l77.102-20.296
			c2.29-0.604,4.634,0.765,5.235,3.054s-0.764,4.633-3.055,5.235l-77.101,20.297C214.97,277.045,214.603,277.091,214.242,277.091z"
			/>
	</g>
</g>
</svg>
