<?xml version="1.0" encoding="utf-8"?>
<!-- Generator: Adobe Illustrator 16.0.0, SVG Export Plug-In . SVG Version: 6.00 Build 0)  -->
<!DOCTYPE svg PUBLIC "-//W3C//DTD SVG 1.1//EN" "http://www.w3.org/Graphics/SVG/1.1/DTD/svg11.dtd">
<svg version="1.1" id="Layer_1" xmlns="http://www.w3.org/2000/svg" xmlns:xlink="http://www.w3.org/1999/xlink" x="0px" y="0px"
	 width="188.967px" height="188.469px" viewBox="155.522 155.289 188.967 188.469"
	 enable-background="new 155.522 155.289 188.967 188.469" xml:space="preserve">
<g>
	<g>
		<path fill="#231F20" d="M235.945,343.758c-2.523,0-5.062-0.287-7.541-0.854c-9.493-2.168-17.379-8.135-22.021-16.559
			c-9.726,0.313-18.819-3.423-25.501-10.412c-6.728-7.035-10.021-16.357-9.258-25.945c-8.203-5.016-13.809-13.162-15.547-22.741
			c-1.738-9.58,0.648-19.175,6.567-26.755c-4.083-8.707-4.273-18.59-0.446-27.544c3.825-8.955,11.103-15.647,20.218-18.71
			c1.388-9.517,6.673-17.87,14.802-23.235c5.536-3.655,11.957-5.587,18.567-5.587c2.92,0,5.805,0.374,8.613,1.113
			c6.4-7.178,15.415-11.24,25.153-11.24c7.28,0,14.357,2.359,20.163,6.685c2.123-0.413,4.282-0.621,6.442-0.621
			c5.091,0,10.013,1.127,14.627,3.35c8.771,4.228,15.131,11.797,17.782,21.04c9.442,1.815,17.553,7.471,22.545,15.831
			c4.992,8.358,6.128,18.181,3.25,27.356c6.881,6.715,10.532,15.904,10.094,25.632c-0.438,9.725-4.898,18.547-12.356,24.621
			c2.042,9.396,0.027,19.077-5.695,26.953c-5.724,7.877-14.309,12.78-23.877,13.739c-3.473,8.968-10.482,15.74-19.604,19.161
			c-3.816,1.434-7.806,1.963-11.85,1.963c-0.002,0-0.002,0-0.004,0c-5.463,0-10.818-1.128-15.645-3.652
			C249.738,341.372,242.926,343.758,235.945,343.758z M209.755,317.352l2.661,1.569l0.568,1.274
			c3.253,7.295,9.575,12.494,17.348,14.269c7.68,1.757,15.848-0.263,21.832-5.334l1.109-0.942l3.053-0.19l1.207,0.403
			c4.063,2.596,8.742,3.601,13.537,3.601h0.003c3.003,0,5.967-0.173,8.81-1.239c7.469-2.804,13.039-8.625,15.28-16.295l0.41-1.492
			l2.448-1.974h1.427c7.989,0,15.262-3.696,19.951-10.147c4.683-6.443,6.025-14.42,3.683-22.049l-0.42-1.318l1.018-2.912
			l1.195-0.805c6.59-4.502,10.574-11.644,10.931-19.602c0.36-7.963-2.967-15.437-9.126-20.511l-1.09-0.895l-0.767-3.054l0.532-1.304
			c3.021-7.39,2.408-15.551-1.677-22.392c-4.092-6.849-10.999-11.258-18.948-12.096l-1.433-0.15l-2.09-1.935l-0.442-1.541
			c-1.543-7.842-6.551-14.327-13.738-17.79c-5.396-2.6-11.518-3.181-17.277-1.661l-2.189,0.577l-1.724-1.47
			c-4.534-3.871-10.317-6.002-16.285-6.002c-7.967,0-15.286,3.659-20.079,10.039l-0.857,1.14l-2.977,0.896l-1.364-0.476
			c-2.732-0.977-5.589-1.472-8.489-1.472c-4.909,0-9.681,1.438-13.797,4.155c-6.661,4.396-10.755,11.493-11.232,19.471l-0.087,1.453
			l-1.871,2.273l-1.486,0.401c-7.765,1.894-14.018,7.188-17.153,14.525c-3.135,7.334-2.645,15.508,1.347,22.428l0.699,1.21
			l-0.342,3.111l-0.959,1.034c-5.432,5.859-7.732,13.722-6.309,21.567c1.423,7.842,6.332,14.391,13.47,17.969l1.271,0.639
			l1.414,2.801l-0.229,1.387c-1.299,7.877,1.113,15.697,6.619,21.456c4.78,5.002,11.224,7.756,18.144,7.756
			c0.999,0,2.009-0.062,2.999-0.181L209.755,317.352z"/>
	</g>
	<g>
		<path fill="#231F20" d="M250.54,314.975c-31.366,0-56.886-25.521-56.886-56.89c0-2.39,1.938-4.328,4.329-4.328H303.1
			c2.393,0,4.328,1.938,4.328,4.328C307.429,289.454,281.909,314.975,250.54,314.975z M202.506,262.414
			c2.196,24.572,22.899,43.902,48.034,43.902c25.138,0,45.842-19.33,48.038-43.902H202.506z"/>
	</g>
	<g>
		<path fill="#231F20" d="M234.932,226.246c-2.392,0-4.328-1.938-4.328-4.329c0-7.8-6.347-14.147-14.148-14.147
			c-7.799,0-14.143,6.347-14.143,14.147c0,2.391-1.938,4.329-4.329,4.329c-2.392,0-4.329-1.938-4.329-4.329
			c0-12.574,10.229-22.804,22.801-22.804c12.575,0,22.805,10.23,22.805,22.804C239.26,224.308,237.323,226.246,234.932,226.246z"/>
	</g>
	<g>
		<path fill="#231F20" d="M303.102,226.246c-2.392,0-4.328-1.938-4.328-4.329c0-7.8-6.348-14.147-14.147-14.147
			c-7.799,0-14.146,6.347-14.146,14.147c0,2.391-1.937,4.329-4.328,4.329c-2.391,0-4.327-1.938-4.327-4.329
			c0-12.574,10.229-22.804,22.801-22.804c12.575,0,22.804,10.23,22.804,22.804C307.429,224.308,305.492,226.246,303.102,226.246z"/>
	</g>
</g>
</svg>
