<?xml version="1.0" encoding="utf-8"?>
<!-- Generator: Adobe Illustrator 16.0.0, SVG Export Plug-In . SVG Version: 6.00 Build 0)  -->
<!DOCTYPE svg PUBLIC "-//W3C//DTD SVG 1.1//EN" "http://www.w3.org/Graphics/SVG/1.1/DTD/svg11.dtd">
<svg version="1.1" id="Layer_1" xmlns="http://www.w3.org/2000/svg" xmlns:xlink="http://www.w3.org/1999/xlink" x="0px" y="0px"
	 width="176.501px" height="176.02px" viewBox="161.75 161.99 176.501 176.02"
	 enable-background="new 161.75 161.99 176.501 176.02" xml:space="preserve">
<path fill="#CE5757" d="M327.746,231.201c-0.023-0.091-0.045-0.181-0.068-0.271c3.313-8.1,2.906-17.605-1.924-25.695
	c-4.84-8.101-13.029-12.965-21.744-13.883c-0.055-0.051-0.109-0.103-0.168-0.152c-1.691-8.596-7.268-16.319-15.768-20.414
	c-6.426-3.097-13.434-3.593-19.83-1.906c-5.033-4.295-11.561-6.89-18.693-6.89c-9.423,0-17.788,4.523-23.042,11.52
	c-0.094,0.027-0.185,0.055-0.276,0.082c-8.238-2.944-17.714-2.11-25.578,3.081c-7.874,5.198-12.366,13.597-12.89,22.343
	c-0.051,0.058-0.098,0.118-0.146,0.177c-8.513,2.076-15.975,7.994-19.684,16.67c-3.707,8.672-2.83,18.152,1.545,25.737
	c-0.008,0.081-0.016,0.162-0.025,0.244c-5.955,6.422-8.922,15.468-7.238,24.75c1.684,9.275,7.631,16.699,15.455,20.621
	c0.041,0.082,0.082,0.162,0.123,0.244c-1.424,8.637,1.086,17.811,7.599,24.625c6.515,6.814,15.571,9.734,24.264,8.693
	c0.075,0.047,0.153,0.088,0.229,0.133c3.565,7.994,10.716,14.271,19.907,16.371c9.199,2.1,18.373-0.457,25.056-6.121
	c0.075-0.004,0.155-0.01,0.233-0.016c7.381,4.717,16.815,6.02,25.647,2.707c8.832-3.314,15.08-10.5,17.539-18.91
	c0.063-0.047,0.127-0.096,0.189-0.144c8.76-0.131,17.35-4.239,22.895-11.871c5.539-7.62,6.8-17.047,4.229-25.411
	c0.033-0.091,0.064-0.181,0.094-0.271c7.226-4.936,12.121-13.09,12.545-22.502C338.645,245.327,334.5,236.765,327.746,231.201z
	 M283.512,205.359c5.799,0,10.5,4.699,10.5,10.497c0,5.799-4.701,10.498-10.5,10.498c-5.795,0-10.496-4.699-10.496-10.498
	C273.016,210.058,277.717,205.359,283.512,205.359z M205.925,215.856c0-5.798,4.699-10.497,10.496-10.497
	c5.801,0,10.499,4.699,10.499,10.497c0,5.799-4.698,10.498-10.499,10.498C210.625,226.354,205.925,221.655,205.925,215.856z
	 M291.984,256.129l-76.228,20.066c-0.363,0.096-0.725,0.141-1.081,0.141c-1.879,0-3.595-1.258-4.097-3.16
	c-0.596-2.264,0.757-4.58,3.02-5.176l76.229-20.067c2.262-0.592,4.582,0.756,5.178,3.02
	C295.602,253.217,294.248,255.533,291.984,256.129z"/>
</svg>
