<?xml version="1.0" encoding="utf-8"?>
<!-- Generator: Adobe Illustrator 16.0.0, SVG Export Plug-In . SVG Version: 6.00 Build 0)  -->
<!DOCTYPE svg PUBLIC "-//W3C//DTD SVG 1.1//EN" "http://www.w3.org/Graphics/SVG/1.1/DTD/svg11.dtd">
<svg version="1.1" id="Layer_1" xmlns="http://www.w3.org/2000/svg" xmlns:xlink="http://www.w3.org/1999/xlink" x="0px" y="0px"
	 width="176.501px" height="176.02px" viewBox="162.095 162.136 176.501 176.02"
	 enable-background="new 162.095 162.136 176.501 176.02" xml:space="preserve">
<g>
	<path fill="#CE5757" d="M250.863,304.977c24.604,0,44.875-18.977,47.027-42.977h-94.05C205.992,286,226.26,304.977,250.863,304.977
		z"/>
	<path fill="#CE5757" d="M328.092,231.347c-0.021-0.091-0.047-0.181-0.067-0.271c3.311-8.1,2.907-17.605-1.925-25.695
		c-4.84-8.101-13.028-12.965-21.744-13.883c-0.056-0.051-0.109-0.103-0.168-0.152c-1.689-8.596-7.268-16.319-15.766-20.414
		c-6.43-3.097-13.436-3.593-19.832-1.906c-5.033-4.295-11.561-6.89-18.693-6.89c-9.423,0-17.788,4.523-23.043,11.52
		c-0.094,0.027-0.185,0.055-0.275,0.082c-8.238-2.944-17.714-2.11-25.578,3.081c-7.875,5.198-12.365,13.597-12.891,22.343
		c-0.049,0.058-0.098,0.118-0.146,0.177c-8.513,2.076-15.976,7.994-19.684,16.67c-3.707,8.672-2.829,18.152,1.546,25.737
		c-0.008,0.081-0.018,0.162-0.027,0.244c-5.953,6.422-8.922,15.47-7.236,24.751c1.684,9.274,7.631,16.698,15.453,20.62
		c0.043,0.082,0.084,0.162,0.125,0.244c-1.424,8.638,1.084,17.812,7.598,24.625c6.514,6.813,15.572,9.733,24.264,8.693
		c0.076,0.047,0.152,0.088,0.229,0.133c3.566,7.994,10.717,14.271,19.908,16.371c9.197,2.1,18.371-0.457,25.053-6.121
		c0.078-0.004,0.156-0.011,0.236-0.017c7.381,4.718,16.815,6.021,25.647,2.707c8.831-3.313,15.08-10.5,17.538-18.909
		c0.063-0.047,0.126-0.096,0.189-0.145c8.76-0.131,17.351-4.239,22.896-11.869c5.539-7.622,6.797-17.049,4.229-25.413
		c0.031-0.089,0.063-0.181,0.095-0.271c7.223-4.937,12.121-13.091,12.543-22.504C338.99,245.473,334.846,236.911,328.092,231.347z
		 M217.499,200.8c12.31,0,22.322,10.014,22.322,22.322c0,2.341-1.897,4.238-4.235,4.238c-2.343,0-4.238-1.897-4.238-4.238
		c0-7.636-6.213-13.849-13.849-13.849c-7.636,0-13.847,6.213-13.847,13.849c0,2.341-1.896,4.238-4.236,4.238
		c-2.342,0-4.238-1.897-4.238-4.238C195.178,210.813,205.19,200.8,217.499,200.8z M250.863,314.217
		c-30.704,0-55.687-25.128-55.687-55.835c0-2.342,1.896-4.382,4.238-4.382h102.899c2.343,0,4.236,2.04,4.236,4.382
		C306.553,289.089,281.57,314.217,250.863,314.217z M302.316,227.36c-2.342,0-4.238-1.897-4.238-4.238
		c0-7.636-6.211-13.849-13.848-13.849c-7.635,0-13.847,6.213-13.847,13.849c0,2.341-1.897,4.238-4.237,4.238
		s-4.237-1.897-4.237-4.238c0-12.309,10.013-22.322,22.321-22.322c12.31,0,22.321,10.014,22.321,22.322
		C306.553,225.463,304.658,227.36,302.316,227.36z"/>
</g>
</svg>
