<?xml version="1.0" encoding="utf-8"?>
<!-- Generator: Adobe Illustrator 16.0.0, SVG Export Plug-In . SVG Version: 6.00 Build 0)  -->
<!DOCTYPE svg PUBLIC "-//W3C//DTD SVG 1.1//EN" "http://www.w3.org/Graphics/SVG/1.1/DTD/svg11.dtd">
<svg version="1.1" id="Layer_1" xmlns="http://www.w3.org/2000/svg" xmlns:xlink="http://www.w3.org/1999/xlink" x="0px" y="0px"
	 width="124.658px" height="124.658px" viewBox="0 0 124.658 124.658" enable-background="new 0 0 124.658 124.658"
	 xml:space="preserve">
<g>
	<circle fill="#BABABA" cx="62.417" cy="62.501" r="62.329"/>
</g>
<g>
	<path fill="#FFFFFF" d="M57.089,73.242c0-3.663,0.569-6.578,1.707-8.742c1.138-2.165,2.928-3.969,5.371-5.413
		c1.109-0.666,2.332-1.345,3.664-2.04c1.332-0.694,2.58-1.541,3.747-2.54c1.165-1,2.15-2.192,2.956-3.581
		c0.803-1.387,1.207-3.108,1.207-5.163c0-1.832-0.319-3.414-0.957-4.746c-0.64-1.332-1.486-2.457-2.54-3.373
		c-1.056-0.916-2.264-1.595-3.622-2.041c-1.362-0.443-2.763-0.666-4.205-0.666c-2.998,0-5.677,0.819-8.036,2.457
		c-2.36,1.638-4.15,3.651-5.37,6.037l-3.914-2.498c0.776-1.721,1.776-3.248,2.997-4.58c1.222-1.332,2.595-2.457,4.123-3.373
		c1.526-0.916,3.165-1.609,4.913-2.082c1.748-0.471,3.539-0.708,5.371-0.708c2.053,0,4.052,0.32,5.995,0.958
		c1.943,0.639,3.677,1.624,5.205,2.957c1.526,1.332,2.747,2.998,3.663,4.996c0.916,1.999,1.374,4.33,1.374,6.995
		c0,2.221-0.319,4.095-0.958,5.621c-0.638,1.527-1.485,2.845-2.539,3.955c-1.055,1.111-2.263,2.068-3.622,2.872
		c-1.362,0.806-2.734,1.597-4.122,2.373c-0.999,0.556-1.944,1.124-2.831,1.708c-0.889,0.582-1.693,1.331-2.415,2.247
		c-0.723,0.916-1.291,2.041-1.707,3.373c-0.417,1.332-0.624,2.996-0.624,4.995H57.089z M57.172,90.063v-8.911h4.913v8.911H57.172z"
		/>
</g>
</svg>
